<mxfile host="Electron" agent="Mozilla/5.0 (Macintosh; Intel Mac OS X 10_15_7) AppleWebKit/537.36 (KHTML, like Gecko) draw.io/24.7.5 Chrome/126.0.6478.183 Electron/31.3.0 Safari/537.36" version="24.7.5">
  <diagram name="Pagina-1" id="RsokhuRy_V_TFq_w9vvn">
    <mxGraphModel dx="769" dy="524" grid="1" gridSize="10" guides="1" tooltips="1" connect="1" arrows="1" fold="1" page="1" pageScale="1" pageWidth="827" pageHeight="1169" math="0" shadow="0">
      <root>
        <mxCell id="0" />
        <mxCell id="1" parent="0" />
        <mxCell id="znVfFa8Y2JcGQeUdmU2O-1" value="Libro" style="swimlane;fontStyle=1;align=center;verticalAlign=top;childLayout=stackLayout;horizontal=1;startSize=26;horizontalStack=0;resizeParent=1;resizeParentMax=0;resizeLast=0;collapsible=1;marginBottom=0;whiteSpace=wrap;html=1;" vertex="1" parent="1">
          <mxGeometry x="370" y="30" width="210" height="144" as="geometry" />
        </mxCell>
        <mxCell id="znVfFa8Y2JcGQeUdmU2O-2" value="int id&lt;div&gt;static int idCounter&lt;br&gt;&lt;div&gt;String nome&lt;/div&gt;&lt;div&gt;Autore autore&lt;/div&gt;&lt;div&gt;int annoPubblicazione&lt;/div&gt;&lt;/div&gt;" style="text;strokeColor=none;fillColor=none;align=left;verticalAlign=top;spacingLeft=4;spacingRight=4;overflow=hidden;rotatable=0;points=[[0,0.5],[1,0.5]];portConstraint=eastwest;whiteSpace=wrap;html=1;" vertex="1" parent="znVfFa8Y2JcGQeUdmU2O-1">
          <mxGeometry y="26" width="210" height="84" as="geometry" />
        </mxCell>
        <mxCell id="znVfFa8Y2JcGQeUdmU2O-3" value="" style="line;strokeWidth=1;fillColor=none;align=left;verticalAlign=middle;spacingTop=-1;spacingLeft=3;spacingRight=3;rotatable=0;labelPosition=right;points=[];portConstraint=eastwest;strokeColor=inherit;" vertex="1" parent="znVfFa8Y2JcGQeUdmU2O-1">
          <mxGeometry y="110" width="210" height="8" as="geometry" />
        </mxCell>
        <mxCell id="znVfFa8Y2JcGQeUdmU2O-4" value="costruttore, getter, setter e toString()" style="text;strokeColor=none;fillColor=none;align=left;verticalAlign=top;spacingLeft=4;spacingRight=4;overflow=hidden;rotatable=0;points=[[0,0.5],[1,0.5]];portConstraint=eastwest;whiteSpace=wrap;html=1;" vertex="1" parent="znVfFa8Y2JcGQeUdmU2O-1">
          <mxGeometry y="118" width="210" height="26" as="geometry" />
        </mxCell>
        <mxCell id="znVfFa8Y2JcGQeUdmU2O-5" value="Autore" style="swimlane;fontStyle=1;align=center;verticalAlign=top;childLayout=stackLayout;horizontal=1;startSize=26;horizontalStack=0;resizeParent=1;resizeParentMax=0;resizeLast=0;collapsible=1;marginBottom=0;whiteSpace=wrap;html=1;" vertex="1" parent="1">
          <mxGeometry x="370" y="190" width="246" height="150" as="geometry" />
        </mxCell>
        <mxCell id="znVfFa8Y2JcGQeUdmU2O-6" value="&lt;div&gt;int id&lt;div&gt;static int idCounter&lt;/div&gt;&lt;/div&gt;&lt;div&gt;String nome&lt;/div&gt;&lt;div&gt;String cognome&lt;/div&gt;" style="text;strokeColor=none;fillColor=none;align=left;verticalAlign=top;spacingLeft=4;spacingRight=4;overflow=hidden;rotatable=0;points=[[0,0.5],[1,0.5]];portConstraint=eastwest;whiteSpace=wrap;html=1;" vertex="1" parent="znVfFa8Y2JcGQeUdmU2O-5">
          <mxGeometry y="26" width="246" height="74" as="geometry" />
        </mxCell>
        <mxCell id="znVfFa8Y2JcGQeUdmU2O-7" value="" style="line;strokeWidth=1;fillColor=none;align=left;verticalAlign=middle;spacingTop=-1;spacingLeft=3;spacingRight=3;rotatable=0;labelPosition=right;points=[];portConstraint=eastwest;strokeColor=inherit;" vertex="1" parent="znVfFa8Y2JcGQeUdmU2O-5">
          <mxGeometry y="100" width="246" height="8" as="geometry" />
        </mxCell>
        <mxCell id="znVfFa8Y2JcGQeUdmU2O-8" value="costruttore con e senza cognome, getter, setter, e toString()" style="text;strokeColor=none;fillColor=none;align=left;verticalAlign=top;spacingLeft=4;spacingRight=4;overflow=hidden;rotatable=0;points=[[0,0.5],[1,0.5]];portConstraint=eastwest;whiteSpace=wrap;html=1;" vertex="1" parent="znVfFa8Y2JcGQeUdmU2O-5">
          <mxGeometry y="108" width="246" height="42" as="geometry" />
        </mxCell>
        <mxCell id="znVfFa8Y2JcGQeUdmU2O-13" value="Interfaccia CRUD" style="swimlane;fontStyle=1;align=center;verticalAlign=top;childLayout=stackLayout;horizontal=1;startSize=26;horizontalStack=0;resizeParent=1;resizeParentMax=0;resizeLast=0;collapsible=1;marginBottom=0;whiteSpace=wrap;html=1;" vertex="1" parent="1">
          <mxGeometry x="80" y="30" width="260" height="268" as="geometry" />
        </mxCell>
        <mxCell id="znVfFa8Y2JcGQeUdmU2O-14" value="&lt;br&gt;&lt;div&gt;final static String SELECT_FROM_ID&lt;/div&gt;&lt;div&gt;(SELECT * FROM ? WHERE id=?)&lt;/div&gt;&lt;div&gt;final static String SELECT_FROM_AUTHOR&lt;/div&gt;&lt;div&gt;(SELECT * FROM libri WHERE autore_id=?)&lt;/div&gt;&lt;div&gt;final static String SELECT_ALL&lt;/div&gt;&lt;div&gt;final static String ADD_LIBRO_QUERY&lt;/div&gt;&lt;div&gt;final static String ADD_AUTORE_QUERY&lt;/div&gt;&lt;div&gt;final static String DELETE_QUERY&lt;/div&gt;&lt;div&gt;final static String UPDATE_QUERY&lt;/div&gt;&lt;div&gt;(UPDATE ? SET ?=? WHERE id=?)&lt;/div&gt;" style="text;strokeColor=none;fillColor=none;align=left;verticalAlign=top;spacingLeft=4;spacingRight=4;overflow=hidden;rotatable=0;points=[[0,0.5],[1,0.5]];portConstraint=eastwest;whiteSpace=wrap;html=1;" vertex="1" parent="znVfFa8Y2JcGQeUdmU2O-13">
          <mxGeometry y="26" width="260" height="234" as="geometry" />
        </mxCell>
        <mxCell id="znVfFa8Y2JcGQeUdmU2O-15" value="" style="line;strokeWidth=1;fillColor=none;align=left;verticalAlign=middle;spacingTop=-1;spacingLeft=3;spacingRight=3;rotatable=0;labelPosition=right;points=[];portConstraint=eastwest;strokeColor=inherit;" vertex="1" parent="znVfFa8Y2JcGQeUdmU2O-13">
          <mxGeometry y="260" width="260" height="8" as="geometry" />
        </mxCell>
        <mxCell id="znVfFa8Y2JcGQeUdmU2O-18" value="metodiScanner" style="swimlane;fontStyle=0;childLayout=stackLayout;horizontal=1;startSize=26;fillColor=none;horizontalStack=0;resizeParent=1;resizeParentMax=0;resizeLast=0;collapsible=1;marginBottom=0;whiteSpace=wrap;html=1;" vertex="1" parent="1">
          <mxGeometry x="370" y="370" width="140" height="100" as="geometry" />
        </mxCell>
        <mxCell id="znVfFa8Y2JcGQeUdmU2O-19" value="getInt()" style="text;strokeColor=none;fillColor=none;align=left;verticalAlign=top;spacingLeft=4;spacingRight=4;overflow=hidden;rotatable=0;points=[[0,0.5],[1,0.5]];portConstraint=eastwest;whiteSpace=wrap;html=1;" vertex="1" parent="znVfFa8Y2JcGQeUdmU2O-18">
          <mxGeometry y="26" width="140" height="26" as="geometry" />
        </mxCell>
        <mxCell id="znVfFa8Y2JcGQeUdmU2O-20" value="getValidYear()&lt;div&gt;upperLower()&lt;/div&gt;" style="text;strokeColor=none;fillColor=none;align=left;verticalAlign=top;spacingLeft=4;spacingRight=4;overflow=hidden;rotatable=0;points=[[0,0.5],[1,0.5]];portConstraint=eastwest;whiteSpace=wrap;html=1;" vertex="1" parent="znVfFa8Y2JcGQeUdmU2O-18">
          <mxGeometry y="52" width="140" height="48" as="geometry" />
        </mxCell>
        <mxCell id="znVfFa8Y2JcGQeUdmU2O-22" value="printStyle" style="swimlane;fontStyle=1;align=center;verticalAlign=top;childLayout=stackLayout;horizontal=1;startSize=26;horizontalStack=0;resizeParent=1;resizeParentMax=0;resizeLast=0;collapsible=1;marginBottom=0;whiteSpace=wrap;html=1;" vertex="1" parent="1">
          <mxGeometry x="370" y="480" width="160" height="60" as="geometry" />
        </mxCell>
        <mxCell id="znVfFa8Y2JcGQeUdmU2O-23" value="slowPrint(String string)" style="text;strokeColor=none;fillColor=none;align=left;verticalAlign=top;spacingLeft=4;spacingRight=4;overflow=hidden;rotatable=0;points=[[0,0.5],[1,0.5]];portConstraint=eastwest;whiteSpace=wrap;html=1;" vertex="1" parent="znVfFa8Y2JcGQeUdmU2O-22">
          <mxGeometry y="26" width="160" height="26" as="geometry" />
        </mxCell>
        <mxCell id="znVfFa8Y2JcGQeUdmU2O-24" value="" style="line;strokeWidth=1;fillColor=none;align=left;verticalAlign=middle;spacingTop=-1;spacingLeft=3;spacingRight=3;rotatable=0;labelPosition=right;points=[];portConstraint=eastwest;strokeColor=inherit;" vertex="1" parent="znVfFa8Y2JcGQeUdmU2O-22">
          <mxGeometry y="52" width="160" height="8" as="geometry" />
        </mxCell>
        <mxCell id="znVfFa8Y2JcGQeUdmU2O-26" value="BibliotecaManager implements CRUD" style="swimlane;fontStyle=1;align=center;verticalAlign=top;childLayout=stackLayout;horizontal=1;startSize=26;horizontalStack=0;resizeParent=1;resizeParentMax=0;resizeLast=0;collapsible=1;marginBottom=0;whiteSpace=wrap;html=1;" vertex="1" parent="1">
          <mxGeometry x="80" y="370" width="230" height="502" as="geometry" />
        </mxCell>
        <mxCell id="znVfFa8Y2JcGQeUdmU2O-27" value="arrayList&amp;lt;Libro&amp;gt;libri&lt;div&gt;arrayList&amp;lt;Autore&amp;gt;autori&lt;/div&gt;&lt;div&gt;final static String URL&lt;div&gt;final static String USER&lt;/div&gt;&lt;div&gt;final static String PASSWORD&lt;/div&gt;&lt;/div&gt;" style="text;strokeColor=none;fillColor=none;align=left;verticalAlign=top;spacingLeft=4;spacingRight=4;overflow=hidden;rotatable=0;points=[[0,0.5],[1,0.5]];portConstraint=eastwest;whiteSpace=wrap;html=1;" vertex="1" parent="znVfFa8Y2JcGQeUdmU2O-26">
          <mxGeometry y="26" width="230" height="84" as="geometry" />
        </mxCell>
        <mxCell id="znVfFa8Y2JcGQeUdmU2O-28" value="" style="line;strokeWidth=1;fillColor=none;align=left;verticalAlign=middle;spacingTop=-1;spacingLeft=3;spacingRight=3;rotatable=0;labelPosition=right;points=[];portConstraint=eastwest;strokeColor=inherit;" vertex="1" parent="znVfFa8Y2JcGQeUdmU2O-26">
          <mxGeometry y="110" width="230" height="8" as="geometry" />
        </mxCell>
        <mxCell id="znVfFa8Y2JcGQeUdmU2O-29" value="addLibro()&lt;div&gt;addAutore()&lt;/div&gt;&lt;div&gt;removeLibro(int LibroId)&lt;/div&gt;&lt;div&gt;remove autore(int autoreId)&lt;/div&gt;&lt;div&gt;boolean libroPresente(int libroId)&lt;/div&gt;&lt;div&gt;boolean autorePresente(int autoreId)&lt;/div&gt;&lt;div&gt;Libro getLibroById&lt;/div&gt;&lt;div&gt;Autore getAutoreById&lt;/div&gt;" style="text;strokeColor=none;fillColor=none;align=left;verticalAlign=top;spacingLeft=4;spacingRight=4;overflow=hidden;rotatable=0;points=[[0,0.5],[1,0.5]];portConstraint=eastwest;whiteSpace=wrap;html=1;" vertex="1" parent="znVfFa8Y2JcGQeUdmU2O-26">
          <mxGeometry y="118" width="230" height="162" as="geometry" />
        </mxCell>
        <mxCell id="znVfFa8Y2JcGQeUdmU2O-30" value="insertLibro(Libro libro)&lt;div&gt;insertAutore(Autore autore)&lt;/div&gt;&lt;div&gt;updateLibro(iLibro libro, String nome)&lt;/div&gt;&lt;div&gt;updateLibro(Libro libro int anno)&lt;/div&gt;&lt;div&gt;updateAutore(Autore autore, String campo, String nuovoValore)&lt;/div&gt;&lt;div&gt;deleteLibro(Libro libro)&lt;/div&gt;&lt;div&gt;deleteAutore(Autore autore)&lt;/div&gt;&lt;div&gt;printLibri()&lt;/div&gt;&lt;div&gt;printLibro(Libro libro)&lt;/div&gt;&lt;div&gt;printLibriAutore(autore Autore)&lt;/div&gt;&lt;div&gt;printAutori()&lt;/div&gt;&lt;div&gt;printAutore(int autoreId)&lt;/div&gt;" style="text;strokeColor=none;fillColor=none;align=left;verticalAlign=top;spacingLeft=4;spacingRight=4;overflow=hidden;rotatable=0;points=[[0,0.5],[1,0.5]];portConstraint=eastwest;whiteSpace=wrap;html=1;" vertex="1" parent="znVfFa8Y2JcGQeUdmU2O-26">
          <mxGeometry y="280" width="230" height="222" as="geometry" />
        </mxCell>
      </root>
    </mxGraphModel>
  </diagram>
</mxfile>
